<?xml version="1.0" ?><!-- Uploaded to: SVG Repo, www.svgrepo.com, Generator: SVG Repo Mixer Tools -->
<svg fill="#000000" width="800px" height="800px" viewBox="0 -0.08 20 20" data-name="Capa 1" id="Capa_1" xmlns="http://www.w3.org/2000/svg"><path d="M14,8.32a1,1,0,0,1-.58-1A1.78,1.78,0,0,0,12.91,6a1.83,1.83,0,0,0-1.31-.58,1.75,1.75,0,0,0-1,.33,1,1,0,0,1-1.17,0,1.73,1.73,0,0,0-1-.32A1.87,1.87,0,0,0,7.09,6a1.77,1.77,0,0,0-.45,1.35,1,1,0,0,1-.59,1,1.77,1.77,0,0,0,0,3.2,1,1,0,0,1,.58,1,1.76,1.76,0,0,0,.46,1.35,1.81,1.81,0,0,0,2.33.25A1.07,1.07,0,0,1,10,14h0a1.06,1.06,0,0,1,.59.19,1.72,1.72,0,0,0,1,.32h0a1.79,1.79,0,0,0,1.31-.58,1.73,1.73,0,0,0,.45-1.34,1,1,0,0,1,.58-1,1.78,1.78,0,0,0,0-3.21Zm-.32,2.53a1.78,1.78,0,0,0-1,1.76,1,1,0,0,1-1.61.91,1.75,1.75,0,0,0-1-.32h0a2,2,0,0,0-1,.33,1.05,1.05,0,0,1-1.34-.16,1,1,0,0,1-.26-.78,1.8,1.8,0,0,0-1-1.75,1,1,0,0,1-.58-.92A1,1,0,0,1,6.37,9a1.79,1.79,0,0,0,1-1.76,1,1,0,0,1,.26-.77,1.07,1.07,0,0,1,.76-.34A1.06,1.06,0,0,1,9,6.32a1.79,1.79,0,0,0,2,0,1,1,0,0,1,1.34.15,1,1,0,0,1,.26.78,1.8,1.8,0,0,0,1,1.75,1,1,0,0,1,0,1.85Z"/><path d="M10,8.08a1.85,1.85,0,1,0,1.85,1.84A1.85,1.85,0,0,0,10,8.08ZM10,11a1.1,1.1,0,1,1,1.1-1.1A1.1,1.1,0,0,1,10,11Z"/></svg>